<svg width="24" height="24" viewBox="0 0 24 24" fill="none" xmlns="http://www.w3.org/2000/svg">
<path d="M12 1.78186C10.9473 1.78186 8.88412 6.95217 8.0325 7.57102C7.18078 8.18977 1.6259 8.55422 1.30059 9.55542C0.975279 10.5566 5.25506 14.1165 5.58037 15.1177C5.90569 16.1189 4.53572 21.5145 5.38744 22.1333C6.23915 22.752 10.9473 19.7818 12 19.7818C13.0527 19.7818 17.7609 22.752 18.6126 22.1333C19.4643 21.5145 18.0943 16.1189 18.4196 15.1177C18.7449 14.1165 23.0247 10.5566 22.6994 9.55538C22.3741 8.55413 16.8192 8.18972 15.9675 7.57092C15.1159 6.95217 13.0528 1.78177 12 1.78177L12 1.78186Z" fill="#C8C8C8"/>
</svg>
